# xmcd
#
# Track frame offsets: 
#        150
#        15412
#        28322
#        38705
#        51256
#        64876
#        75734
#        87942
#        100751
#        111233
#        121802
#        134421
#        146643
#        180757
#        191803
#        204753
#        219408
#        231337
#        243585
#        260174
#        292700
#
# Disc length: 4120 seconds
#
# Revision: 2
# Processed by: cddbd v1.5.2PL0 Copyright (c) Steve Scherf et al.
# Submitted via: ExactAudioCopy v1.1
#
DISCID=29101615
DTITLE=Syl Johnson - Syl Johnson:  Complete Mythology (Numero) - Disc 
DTITLE=3
DYEAR=2010
DGENRE=Soul
TTITLE0=My Funky Band
TTITLE1=Sockin' Soul Power
TTITLE2=Double Whammy
TTITLE3=Dresses Too Short
TTITLE4=I Can Take Care Of Business
TTITLE5=Same Kind Of Thing
TTITLE6=I've Got The Real Thing
TTITLE7=Take Me Back
TTITLE8=I Take Care Of Homework
TTITLE9=Let Them Hang High
TTITLE10=Don't Give It Away
TTITLE11=Going To The Shack
TTITLE12=Is It Because I'm Black
TTITLE13=Concrete Reservation
TTITLE14=Together Forever
TTITLE15=Come Together
TTITLE16=Black Balloons
TTITLE17=Walk A Mile In My Shoes
TTITLE18=I'm Talkin' 'Bout Freedom
TTITLE19=Right On
TTITLE20=Everybody Needs Love
EXTD=
EXTT0=
EXTT1=
EXTT2=
EXTT3=
EXTT4=
EXTT5=
EXTT6=
EXTT7=
EXTT8=
EXTT9=
EXTT10=
EXTT11=
EXTT12=
EXTT13=
EXTT14=
EXTT15=
EXTT16=
EXTT17=
EXTT18=
EXTT19=
EXTT20=
PLAYORDER=
